<?xml version="1.0" standalone="no"?>
<!DOCTYPE svg PUBLIC "-//W3C//DTD SVG 20010904//EN"
 "http://www.w3.org/TR/2001/REC-SVG-20010904/DTD/svg10.dtd">
<svg version="1.0" xmlns="http://www.w3.org/2000/svg"
 width="512.000000pt" height="512.000000pt" viewBox="0 0 512.000000 512.000000"
 preserveAspectRatio="xMidYMid meet">
<metadata>
Created by potrace 1.11, written by Peter Selinger 2001-2013
</metadata>
<g transform="translate(0.000000,512.000000) scale(0.100000,-0.100000)"
fill="#000000" stroke="none">
<path d="M2290 4705 c-643 -84 -1191 -427 -1542 -965 -220 -337 -332 -698
-345 -1110 -16 -515 132 -973 450 -1395 85 -113 282 -306 410 -401 699 -523
1669 -573 2413 -124 294 178 569 454 740 742 128 216 222 464 270 713 25 129
28 160 28 390 0 267 -8 344 -59 546 -38 149 -80 261 -155 414 -306 625 -875
1051 -1570 1176 -149 27 -485 35 -640 14z m350 -1415 l0 -270 230 0 230 0 0
-150 0 -150 -230 0 -230 0 0 -326 c0 -372 4 -398 61 -448 49 -41 97 -56 185
-56 84 0 149 17 232 59 l63 32 -3 -153 -3 -153 -80 -32 c-127 -51 -191 -65
-325 -70 -202 -8 -353 38 -467 141 -110 99 -123 169 -123 669 l0 337 -115 0
-115 0 0 138 0 137 48 19 c196 79 312 236 352 474 l12 72 139 0 139 0 0 -270z"/>
</g>
</svg>
